<svg viewBox="0 0 26 55" xmlns="http://www.w3.org/2000/svg" fill-rule="evenodd" clip-rule="evenodd"><path d="M11.486 50.3c-.017-2.763.05-5.526.05-8.288.003-.11.016-.217.052-.32.092-.272.3-.495.564-.604.103-.042.208-.063.318-.074.065-.002.065-.002.13 0 .11.01.215.032.318.074.264.11.472.332.564.603.028.084.042.17.05.257.092 2.795.046 5.592.02 8.39.91-1.022 1.833-2.03 2.77-3.026.042-.04.086-.08.135-.114.146-.104.314-.16.492-.18.044-.003.087-.004.132-.003.148.01.29.046.423.116.303.16.506.476.528.818.007.103-.003.207-.028.308-.037.145-.106.274-.198.39-1.472 1.712-2.982 3.39-4.53 5.035-.025.03-.053.058-.083.084l-.014.012-.005.004-.002.002-.003.002-.002.002c-.073.06-.155.11-.243.147l-.025.01h-.003l-.002.002h-.002l-.014.006c-.034.013-.067.023-.1.032-.005 0-.008 0-.01.002h-.002c-.004 0-.007.002-.01.003h-.003l-.006.002h-.01c-.052.012-.105.018-.158.02-.016.002-.03.002-.047.002h-.047c-.053-.004-.106-.01-.158-.02l-.002-.002h-.007l-.004-.002h-.005c0-.002-.004-.003-.007-.003H12.3c-.002-.002-.005-.002-.01-.003l-.037-.01h-.003l-.004-.003h-.002l-.004-.003h-.003l-.004-.002h-.004l-.004-.002c-.004 0-.008-.003-.012-.004l-.003-.002-.004-.002h-.002l-.008-.003h-.002l-.003-.002h-.004l-.002-.002-.006-.002h-.003l-.003-.002-.006-.003-.008-.002h-.002l-.01-.004c-.01-.005-.018-.01-.027-.013h-.006l-.002-.002h-.003l-.003-.002h-.002c-.063-.03-.123-.068-.18-.11-.035-.03-.07-.06-.102-.09v-.003h-.002l-.027-.03c-1.547-1.645-3.057-3.324-4.53-5.036-.092-.117-.16-.246-.198-.39-.084-.335.014-.696.253-.942.072-.074.156-.137.247-.186.132-.07.275-.107.423-.117h.09c.177.01.348.06.5.158.06.042.117.09.17.14.926.985 1.838 1.98 2.738 2.99zm715.035 162.7c.33.007.656.028.982.07.635.08 1.26.232 1.86.452 1.138.417 2.182 1.077 3.048 1.923.94.918 1.667 2.05 2.104 3.29.2.572.34 1.163.417 1.763.042.326.063.653.07.98.047 7.348.047 14.696 0 22.043-.007.33-.028.656-.07.982-.075.6-.215 1.19-.416 1.762-.437 1.24-1.164 2.373-2.104 3.29-.866.847-1.91 1.507-3.047 1.924-.635.233-1.297.39-1.968.466-.29.033-.582.05-.874.055-2.68.016-5.36.016-8.04 0-.293-.006-.584-.023-.875-.056-.67-.077-1.333-.233-1.968-.466-1.2-.44-2.298-1.153-3.192-2.068-.846-.866-1.506-1.91-1.923-3.047-.233-.635-.39-1.297-.466-1.968-.033-.29-.05-.582-.055-.874-.047-7.346-.047-14.694 0-22.04.006-.293.023-.584.056-.875.077-.67.233-1.333.466-1.968.405-1.104 1.04-2.12 1.85-2.973.908-.95 2.03-1.69 3.265-2.142.6-.22 1.226-.372 1.86-.453.327-.042.654-.063.982-.07 2.68-.016 5.36-.016 8.04 0zm-7.927 2c-.747.005-1.487.124-2.192.373-.8.282-1.545.722-2.18 1.287-.814.722-1.446 1.644-1.82 2.665-.256.7-.385 1.436-.4 2.18-.047 7.358-.137 14.718.002 22.075.024.742.162 1.475.426 2.17.293.77.73 1.48 1.285 2.09.695.765 1.57 1.364 2.537 1.732.695.264 1.427.402 2.17.426 2.72.052 5.44.052 8.16 0 .743-.024 1.475-.162 2.17-.426.843-.32 1.617-.817 2.262-1.448.703-.686 1.25-1.527 1.588-2.45.247-.672.375-1.378.398-2.093.14-7.385.14-14.775 0-22.16-.023-.716-.15-1.422-.398-2.095-.338-.922-.885-1.763-1.588-2.45-.645-.63-1.42-1.126-2.262-1.447-.695-.264-1.428-.402-2.17-.426-2.662-.05-5.324-.002-7.987-.002zm3.963 3.002c.113.01.222.03.327.074.26.108.468.327.56.594.032.09.048.18.055.274.076 2.684.002 5.37.002 8.056-.006.21-.063.407-.184.58-.198.277-.532.438-.872.418-.093-.005-.186-.023-.274-.054-.106-.037-.206-.092-.293-.162-.103-.082-.19-.184-.252-.298-.074-.133-.11-.277-.123-.428-.076-2.684-.002-5.37-.002-8.056.003-.113.02-.223.056-.33.093-.267.3-.486.56-.594.09-.036.18-.057.272-.07.057-.004.11-.006.168-.004z"/></svg>